<?xml version="1.0" standalone="no"?>
<!DOCTYPE svg PUBLIC "-//W3C//DTD SVG 20010904//EN"
 "http://www.w3.org/TR/2001/REC-SVG-20010904/DTD/svg10.dtd">
<svg version="1.0" xmlns="http://www.w3.org/2000/svg"
 width="300.000000pt" height="168.000000pt" viewBox="0 0 300.000000 168.000000"
 preserveAspectRatio="xMidYMid meet">

<g transform="translate(0.000000,168.000000) scale(0.100000,-0.100000)"
fill="#000000" stroke="none">
<path d="M0 1671 c0 -5 17 -13 38 -16 75 -12 86 -17 120 -51 28 -28 41 -35 62
-30 35 6 72 -3 63 -17 -4 -7 0 -8 11 -4 10 4 27 7 37 7 11 0 18 4 15 9 -8 13
19 21 72 22 l47 1 -40 12 c-38 12 -34 13 50 9 66 -2 85 -1 70 7 -18 9 -17 10
5 5 14 -2 30 -5 35 -5 6 0 4 -4 -3 -9 -9 -5 -4 -8 15 -8 15 1 46 -2 68 -6 l40
-7 -35 13 c-24 10 -30 16 -20 20 13 5 13 7 0 16 -11 8 -5 9 25 5 37 -5 38 -4
22 9 -17 14 -15 15 25 10 62 -7 158 -36 152 -45 -3 -4 5 -8 18 -8 13 0 48 -3
78 -6 44 -4 51 -3 37 6 -10 7 -25 9 -33 6 -8 -3 -14 -1 -14 5 0 7 14 8 40 4
43 -7 51 0 23 21 -16 12 -13 14 22 15 l40 1 -35 10 c-36 10 -563 5 -673 -7
-33 -3 -57 -3 -54 2 3 4 -69 10 -159 11 -109 3 -164 0 -164 -7z m513 -38 c-7
-2 -19 -2 -25 0 -7 3 -2 5 12 5 14 0 19 -2 13 -5z"/>
<path d="M0 1618 c0 -23 3 -29 9 -19 6 9 20 12 40 9 39 -6 40 7 1 27 -42 22
-50 19 -50 -17z"/>
<path d="M728 1633 c7 -3 16 -2 19 1 4 3 -2 6 -13 5 -11 0 -14 -3 -6 -6z"/>
<path d="M15 1539 c-19 -7 -19 -8 2 -8 12 -1 24 -5 27 -9 7 -12 146 -14 146
-2 0 5 10 11 23 11 24 1 -45 18 -78 18 -16 1 -17 -1 -5 -9 11 -7 0 -9 -35 -8
-27 1 -52 5 -55 9 -3 3 -14 3 -25 -2z"/>
<path d="M275 1519 c22 -4 49 -8 60 -8 l20 0 -20 9 c-11 5 -38 8 -60 8 l-40 0
40 -9z"/>
<path d="M155 1490 c7 -12 72 -30 105 -30 17 1 7 7 -30 20 -61 22 -84 25 -75
10z"/>
<path d="M513 1469 c24 -14 57 -20 57 -10 0 9 -35 21 -60 21 -12 -1 -11 -3 3
-11z"/>
<path d="M348 1443 c7 -3 16 -2 19 1 4 3 -2 6 -13 5 -11 0 -14 -3 -6 -6z"/>
<path d="M40 1391 c0 -5 6 -12 13 -15 6 -4 -3 -4 -20 -1 -18 2 -33 1 -33 -4 0
-16 32 -21 83 -15 l50 7 -24 18 c-25 19 -69 26 -69 10z"/>
<path d="M58 1333 c7 -3 16 -2 19 1 4 3 -2 6 -13 5 -11 0 -14 -3 -6 -6z"/>
<path d="M1485 965 c-55 -7 -128 -23 -162 -34 -67 -21 -167 -71 -143 -71 25 0
-3 -18 -35 -23 -16 -2 6 -5 50 -6 63 -2 75 -4 56 -12 -13 -5 -44 -10 -68 -11
-23 -2 -43 -6 -43 -11 0 -4 -5 -5 -10 -2 -13 8 -205 -22 -240 -37 -14 -6 -32
-12 -40 -13 -8 -1 -28 -6 -45 -10 -28 -7 -29 -6 -10 8 11 8 49 25 85 38 45 17
58 25 43 27 -31 5 -132 -46 -165 -82 -17 -18 -28 -42 -28 -58 0 -19 -5 -28
-16 -28 -9 0 -12 -5 -8 -11 5 -9 -9 -10 -54 -5 -40 5 -76 3 -104 -6 -32 -9
-42 -10 -46 0 -2 7 -12 12 -22 12 -10 0 -22 5 -26 11 -3 6 -23 18 -43 27 -34
15 -35 16 -11 20 39 6 44 19 10 26 -17 3 -29 10 -26 15 5 8 -104 23 -174 24
-47 1 -155 -14 -182 -25 l-28 -10 0 -180 0 -179 68 6 c37 3 198 12 357 20 160
9 445 24 635 35 190 11 563 31 830 45 503 26 559 30 475 35 -105 6 -215 5
-215 -2 0 -8 -21 -5 -40 7 -8 5 -19 10 -25 11 -5 0 -16 2 -22 2 -18 3 -43 56
-43 90 0 16 5 43 11 61 32 92 129 32 116 -71 -4 -31 -2 -36 13 -35 10 1 16 5
14 9 -3 4 44 8 104 8 60 0 131 3 158 6 32 4 44 2 36 -4 -26 -18 20 -23 275
-29 l253 -6 0 76 c0 70 -2 77 -20 77 -11 0 -20 -4 -20 -10 0 -14 -57 -13 -62
1 -2 6 -17 11 -33 10 -17 0 -40 0 -52 -1 -14 0 -23 -6 -23 -15 0 -12 -14 -15
-60 -15 -59 0 -60 1 -61 28 -1 15 -1 32 0 39 3 21 -18 24 -29 4 -8 -16 -6 -22
7 -30 16 -9 16 -10 -4 -11 -12 0 -28 -9 -36 -20 -17 -25 -74 -44 -83 -28 -4 6
0 16 9 23 24 17 21 32 -7 37 -16 3 -27 0 -31 -10 -4 -12 -8 -13 -17 -4 -7 7
-19 12 -28 12 -13 0 -13 -2 0 -10 26 -16 -17 -24 -62 -11 -37 11 -44 11 -68
-8 -16 -11 -40 -23 -54 -27 -14 -3 -26 -12 -26 -20 0 -8 -9 -14 -19 -14 -21 0
-35 25 -24 43 4 7 0 8 -11 4 -12 -5 -22 3 -37 28 -27 46 -61 54 -100 26 -28
-21 -29 -21 -18 -2 13 20 38 31 76 31 18 0 21 5 18 31 -4 29 -3 30 28 24 24
-5 28 -4 17 4 -8 6 -29 11 -47 11 -17 0 -35 4 -38 10 -3 6 1 7 9 4 38 -14 11
15 -49 55 -109 71 -159 85 -320 87 -77 2 -185 -3 -240 -11z m-71 -44 c16 -6
17 -9 5 -17 -8 -5 -25 -9 -39 -10 -14 -1 -52 -4 -85 -8 -51 -6 -57 -5 -40 5
22 14 101 38 125 38 8 0 24 -4 34 -8z m86 -5 c0 -20 -26 -27 -40 -11 -8 10 -8
14 2 18 24 10 38 7 38 -7z m380 -11 c0 -18 -5 -25 -19 -25 -11 0 -22 -6 -24
-12 -3 -8 -6 -6 -6 5 -1 9 -5 17 -11 17 -23 0 -8 29 18 33 15 2 30 5 35 6 4 0
7 -10 7 -24z m-256 9 c9 -3 16 -16 16 -28 0 -19 -5 -21 -45 -18 -25 2 -45 7
-45 11 0 4 28 24 57 40 1 1 8 -2 17 -5z m115 -39 c0 -5 -4 -3 -9 5 -5 8 -9 22
-9 30 0 16 17 -16 18 -35z m211 19 c0 -8 -5 -12 -10 -9 -6 4 -8 11 -5 16 9 14
15 11 15 -7z m33 -145 c-3 -12 0 -25 7 -29 7 -4 9 -13 5 -20 -5 -9 -9 -9 -14
-1 -14 22 -156 41 -263 36 -140 -7 -207 -21 -240 -52 -31 -29 -35 -27 -80 30
-18 23 -25 36 -16 29 9 -7 20 -12 24 -11 22 4 73 -14 68 -25 -3 -6 1 -3 9 7
21 26 205 49 434 55 68 2 71 1 66 -19z m-783 6 c0 -2 -13 -11 -30 -20 -20 -10
-54 -14 -107 -13 l-78 1 87 6 c48 4 93 12 100 19 12 12 28 16 28 7z m158 -51
c12 -8 19 -20 16 -26 -4 -7 -2 -8 4 -4 16 10 32 -27 32 -73 0 -40 -3 -46 -57
-103 -25 -27 -78 -23 -102 7 -43 56 -39 122 13 179 37 39 60 44 94 20z m-618
-83 c0 -12 -39 -25 -47 -17 -4 3 1 6 10 6 10 0 17 5 17 10 0 6 5 10 10 10 6 0
10 -4 10 -9z"/>
<path d="M1277 662 c-9 -10 -22 -32 -28 -50 -18 -52 24 -114 67 -98 16 6 16 9
4 16 -12 8 -10 10 7 10 24 0 53 43 53 77 0 54 -68 84 -103 45z m51 -44 c0 -48
-9 -68 -27 -68 -13 0 -20 9 -23 30 -3 16 -2 28 0 25 8 -8 43 16 37 26 -4 5 -2
9 4 9 5 0 10 -10 9 -22z"/>
<path d="M1304 581 c0 -11 4 -17 8 -15 4 3 8 12 8 20 0 8 -4 14 -8 14 -4 0 -8
-9 -8 -19z"/>
<path d="M2 880 c-1 -25 3 -30 24 -30 15 0 24 6 24 16 0 10 -6 14 -15 10 -9
-3 -15 0 -15 9 0 28 -17 23 -18 -5z"/>
<path d="M82 878 c-22 -22 -13 -28 40 -28 58 0 61 10 4 12 -26 1 -35 5 -32 15
7 16 3 16 -12 1z"/>
<path d="M910 881 c0 -8 41 -23 47 -17 2 1 -8 8 -22 14 -14 6 -25 8 -25 3z"/>
<path d="M478 857 c4 -14 7 -16 13 -5 12 19 11 25 -5 25 -8 0 -11 -8 -8 -20z"/>
<path d="M2945 873 c-11 -3 -23 -10 -26 -15 -4 -5 -31 -11 -62 -12 -30 -1 -61
-7 -69 -13 -7 -6 -56 -11 -108 -12 -52 -1 -112 -5 -132 -10 -20 -5 -39 -7 -42
-5 -4 2 -3 1 0 -4 6 -8 39 -10 167 -13 48 -1 87 -6 87 -10 0 -5 7 -9 15 -9 8
0 15 -4 15 -10 0 -5 7 -10 15 -10 8 0 15 7 15 15 0 20 17 19 29 -2 9 -17 10
-17 16 -1 4 9 14 15 23 13 9 -2 20 -4 25 -4 4 -1 7 -10 7 -21 0 -28 20 -25 21
3 1 16 2 18 6 5 3 -11 14 -18 29 -18 23 0 24 3 24 64 0 49 -4 65 -16 70 -9 3
-16 5 -17 5 -1 -1 -11 -4 -22 -6z"/>
<path d="M225 860 c-4 -6 7 -10 27 -9 27 0 30 2 13 9 -27 12 -33 12 -40 0z"/>
<path d="M405 860 c-4 -6 -4 -10 -1 -10 2 0 11 -3 20 -6 9 -3 16 -2 16 4 0 14
-28 23 -35 12z"/>
<path d="M880 840 c0 -5 25 -10 55 -10 30 0 55 5 55 10 0 6 -25 10 -55 10 -30
0 -55 -4 -55 -10z"/>
<path d="M1038 833 c12 -2 30 -2 40 0 9 3 -1 5 -23 4 -22 0 -30 -2 -17 -4z"/>
<path d="M2160 830 c8 -5 20 -10 25 -10 6 0 3 5 -5 10 -8 5 -19 10 -25 10 -5
0 -3 -5 5 -10z"/>
<path d="M2235 820 c3 -5 8 -10 11 -10 2 0 4 5 4 10 0 6 -5 10 -11 10 -5 0 -7
-4 -4 -10z"/>
<path d="M2276 818 c3 -4 11 -5 19 -1 21 7 19 12 -4 10 -11 0 -18 -5 -15 -9z"/>
<path d="M2080 669 c0 -5 -5 -7 -11 -3 -16 10 -29 -15 -29 -57 0 -71 47 -89
69 -27 14 41 14 71 -1 86 -15 15 -28 15 -28 1z m10 -64 c-8 -21 -14 -25 -22
-17 -9 9 -8 18 1 38 17 37 36 18 21 -21z"/>
<path d="M2933 533 c15 -2 37 -2 50 0 12 2 0 4 -28 4 -27 0 -38 -2 -22 -4z"/>
<path d="M2114 519 c-8 -14 14 -19 25 -6 8 10 7 14 -5 14 -8 0 -17 -4 -20 -8z"/>
<path d="M2690 520 l-25 -8 28 -1 c15 -1 27 4 27 9 0 6 -1 10 -2 9 -2 -1 -14
-5 -28 -9z"/>
<path d="M2818 523 c12 -2 32 -2 45 0 12 2 2 4 -23 4 -25 0 -35 -2 -22 -4z"/>
<path d="M2520 510 l-45 -7 40 -1 c22 0 49 3 60 8 23 10 9 10 -55 0z"/>
<path d="M2705 490 c-143 -10 -334 -23 -425 -29 -178 -12 -1666 -104 -1945
-121 -93 -5 -207 -13 -252 -16 l-83 -6 0 -159 0 -159 1500 0 1500 0 0 214 c0
215 0 215 -22 219 l-23 4 23 2 c15 1 22 7 22 21 0 11 -3 20 -7 20 -5 0 -55 -7
-113 -15 -125 -17 -214 -19 -205 -5 3 6 51 10 108 10 70 0 97 3 87 10 -11 7
-6 8 16 4 17 -3 50 1 75 10 24 8 35 15 24 14 -11 0 -137 -9 -280 -18z m-205
-39 c0 -21 -71 -27 -120 -10 -17 5 -3 7 40 3 47 -4 61 -2 50 5 -12 9 -11 11 8
11 12 0 22 -4 22 -9z m363 -18 c-13 -2 -33 -2 -45 0 -13 2 -3 4 22 4 25 0 35
-2 23 -4z m-670 -10 c-7 -2 -19 -2 -25 0 -7 3 -2 5 12 5 14 0 19 -2 13 -5z
m-85 -10 c-16 -2 -40 -2 -55 0 -16 2 -3 4 27 4 30 0 43 -2 28 -4z m-191 -9
c-3 -3 -12 -4 -19 -1 -8 3 -5 6 6 6 11 1 17 -2 13 -5z"/>
<path d="M1418 423 c7 -3 16 -2 19 1 4 3 -2 6 -13 5 -11 0 -14 -3 -6 -6z"/>
<path d="M1238 413 c6 -2 18 -2 25 0 6 3 1 5 -13 5 -14 0 -19 -2 -12 -5z"/>
<path d="M1058 403 c12 -2 32 -2 45 0 12 2 2 4 -23 4 -25 0 -35 -2 -22 -4z"/>
<path d="M893 393 c15 -2 37 -2 50 0 12 2 0 4 -28 4 -27 0 -38 -2 -22 -4z"/>
<path d="M718 383 c18 -2 45 -2 60 0 15 2 0 4 -33 4 -33 0 -45 -2 -27 -4z"/>
<path d="M548 373 c18 -2 45 -2 60 0 15 2 0 4 -33 4 -33 0 -45 -2 -27 -4z"/>
<path d="M368 363 c18 -2 45 -2 60 0 15 2 0 4 -33 4 -33 0 -45 -2 -27 -4z"/>
<path d="M187 353 c18 -2 50 -2 70 0 21 2 7 4 -32 4 -38 0 -55 -2 -38 -4z"/>
<path d="M27 343 c18 -2 48 -2 66 0 17 2 3 4 -33 4 -36 0 -50 -2 -33 -4z"/>
</g>
</svg>
